<svg width="200" height="200" viewBox="0 0 200 200" fill="none" xmlns="http://www.w3.org/2000/svg">
  <!-- "C" lettermark with network nodes -->
  <g transform="translate(100, 100)">
    <!-- Bold C shape -->
    <path d="M30,-40 C50,-40 65,-30 65,-10 L40,-10 C40,-20 35,-25 30,-25 L-10,-25 C-20,-25 -25,-20 -25,-10 L-25,10 C-25,20 -20,25 -10,25 L30,25 C35,25 40,20 40,10 L65,10 C65,30 50,40 30,40 L-10,40 C-35,40 -45,30 -45,10 L-45,-10 C-45,-30 -35,-40 -10,-40 Z" 
          fill="#00B388"/>
    
    <!-- Connection nodes - minimalist dots -->
    <circle cx="50" cy="-35" r="3.5" fill="#00B388"/>
    <circle cx="50" cy="35" r="3.5" fill="#00B388"/>
    <circle cx="-30" cy="0" r="3.5" fill="#00B388"/>
  </g>
  
  <!-- CONVOY text - bold sans-serif -->
  <text x="100" y="165" 
        font-family="system-ui, -apple-system, BlinkMacSystemFont, 'Segoe UI', sans-serif" 
        font-size="22" 
        font-weight="700" 
        fill="#1a1a1a" 
        text-anchor="middle"
        letter-spacing="1">CONVOY</text>
</svg>
