<?xml version="1.0" standalone="no"?>
<!DOCTYPE svg PUBLIC "-//W3C//DTD SVG 20010904//EN"
 "http://www.w3.org/TR/2001/REC-SVG-20010904/DTD/svg10.dtd">
<svg version="1.0" xmlns="http://www.w3.org/2000/svg"
 width="1024.000000pt" height="1024.000000pt" viewBox="0 0 1024.000000 1024.000000"
 preserveAspectRatio="xMidYMid meet">

<g transform="translate(0.000000,1024.000000) scale(0.100000,-0.100000)"
fill="#000000" stroke="none">
<path d="M5270 8493 c-415 -31 -868 -139 -1200 -285 -576 -254 -1030 -609
-1383 -1080 -360 -479 -577 -1020 -654 -1632 -21 -162 -23 -640 -4 -791 86
-700 347 -1304 792 -1835 425 -507 1087 -910 1782 -1086 353 -89 733 -126
1077 -105 223 14 285 22 507 67 351 70 613 163 918 327 342 183 789 531 850
662 26 55 31 161 11 222 -26 78 -103 164 -524 586 -453 454 -451 452 -587 452
-104 0 -159 -26 -286 -136 -300 -260 -632 -389 -1039 -406 -440 -18 -863 128
-1190 409 -552 475 -705 1280 -370 1947 228 454 681 783 1215 882 142 27 428
32 560 11 318 -51 581 -168 810 -360 121 -101 195 -135 294 -136 122 -1 168
26 331 193 321 327 673 695 711 743 112 142 122 271 30 393 -116 154 -486 417
-820 584 -518 260 -1040 384 -1596 379 -104 -1 -210 -3 -235 -5z m-56 -804
c65 -30 74 -140 16 -191 -16 -16 -40 -28 -51 -28 -35 0 -257 -49 -389 -85 -69
-19 -186 -60 -260 -90 -123 -51 -138 -55 -171 -46 -42 13 -62 33 -78 80 -28
84 -4 115 134 172 221 91 359 132 579 174 139 27 185 29 220 14z m986 -63 c96
-24 211 -58 255 -74 44 -16 122 -45 174 -65 54 -19 103 -44 113 -57 31 -38 21
-125 -19 -164 -40 -41 -71 -41 -164 -2 -133 54 -292 103 -577 177 -49 13 -96
32 -113 46 -26 22 -29 31 -29 80 0 48 4 58 31 85 29 29 33 31 92 25 34 -3 141
-26 237 -51z m-2371 -572 c28 -20 51 -72 51 -115 0 -28 -19 -51 -138 -173
-155 -157 -219 -235 -317 -385 -37 -55 -75 -106 -85 -111 -75 -40 -192 40
-176 121 7 34 87 167 164 269 31 41 130 150 221 243 l166 167 45 0 c26 0 56
-7 69 -16z m-788 -1257 c54 -36 56 -58 26 -219 -36 -190 -47 -302 -47 -485 0
-145 -1 -153 -23 -179 -19 -22 -34 -28 -80 -32 -68 -5 -101 12 -123 63 -17 41
-19 211 -4 385 9 116 53 371 73 424 23 63 116 85 178 43z m69 -1432 c10 -9 27
-38 36 -64 25 -69 143 -330 172 -381 14 -25 54 -87 90 -138 83 -121 90 -156
39 -207 -33 -33 -57 -41 -112 -37 -42 4 -66 28 -154 161 -91 138 -146 245
-227 442 -60 146 -58 188 9 230 39 24 117 21 147 -6z m928 -1229 c162 -107
327 -197 467 -255 100 -40 125 -66 125 -128 0 -39 -5 -50 -39 -84 -25 -25 -48
-39 -65 -39 -50 0 -269 100 -466 213 -118 68 -306 202 -321 228 -35 66 34 169
114 169 19 0 79 -34 185 -104z m2706 -168 c14 -13 31 -43 37 -68 21 -79 7 -93
-167 -180 -153 -77 -412 -170 -469 -170 -57 0 -105 56 -105 121 0 53 48 89
191 142 69 26 191 76 270 111 160 71 203 79 243 44z m-852 -259 c26 -14 48
-68 48 -119 0 -32 -6 -48 -28 -70 -25 -25 -38 -29 -123 -36 -118 -11 -541 -6
-591 7 -49 13 -78 51 -78 103 0 32 24 93 42 108 2 1 143 5 313 8 171 3 329 7
353 8 24 1 52 -3 64 -9z"/>
</g>
</svg>
